<svg width="52" height="50" viewBox="0 0 52 50" fill="none" xmlns="http://www.w3.org/2000/svg">
<path d="M11.3333 45.8789C10.1417 45.8789 9.12153 45.4712 8.27292 44.6559C7.42431 43.8405 7 42.8604 7 41.7155V12.5717C7 11.4267 7.42431 10.4466 8.27292 9.63127C9.12153 8.81594 10.1417 8.40827 11.3333 8.40827H13.5V4.24487H17.8333V8.40827H35.1667V4.24487H39.5V8.40827H41.6667C42.8583 8.40827 43.8785 8.81594 44.7271 9.63127C45.5757 10.4466 46 11.4267 46 12.5717V41.7155C46 42.8604 45.5757 43.8405 44.7271 44.6559C43.8785 45.4712 42.8583 45.8789 41.6667 45.8789H11.3333ZM11.3333 41.7155H41.6667V20.8985H11.3333V41.7155ZM11.3333 16.7351H41.6667V12.5717H11.3333V16.7351ZM26.5 29.2253C25.8861 29.2253 25.3715 29.0258 24.9562 28.6268C24.541 28.2278 24.3333 27.7334 24.3333 27.1436C24.3333 26.5538 24.541 26.0593 24.9562 25.6604C25.3715 25.2614 25.8861 25.0619 26.5 25.0619C27.1139 25.0619 27.6285 25.2614 28.0438 25.6604C28.459 26.0593 28.6667 26.5538 28.6667 27.1436C28.6667 27.7334 28.459 28.2278 28.0438 28.6268C27.6285 29.0258 27.1139 29.2253 26.5 29.2253ZM17.8333 29.2253C17.2194 29.2253 16.7049 29.0258 16.2896 28.6268C15.8743 28.2278 15.6667 27.7334 15.6667 27.1436C15.6667 26.5538 15.8743 26.0593 16.2896 25.6604C16.7049 25.2614 17.2194 25.0619 17.8333 25.0619C18.4472 25.0619 18.9618 25.2614 19.3771 25.6604C19.7924 26.0593 20 26.5538 20 27.1436C20 27.7334 19.7924 28.2278 19.3771 28.6268C18.9618 29.0258 18.4472 29.2253 17.8333 29.2253ZM35.1667 29.2253C34.5528 29.2253 34.0382 29.0258 33.6229 28.6268C33.2076 28.2278 33 27.7334 33 27.1436C33 26.5538 33.2076 26.0593 33.6229 25.6604C34.0382 25.2614 34.5528 25.0619 35.1667 25.0619C35.7806 25.0619 36.2951 25.2614 36.7104 25.6604C37.1257 26.0593 37.3333 26.5538 37.3333 27.1436C37.3333 27.7334 37.1257 28.2278 36.7104 28.6268C36.2951 29.0258 35.7806 29.2253 35.1667 29.2253ZM26.5 37.5521C25.8861 37.5521 25.3715 37.3526 24.9562 36.9536C24.541 36.5546 24.3333 36.0602 24.3333 35.4704C24.3333 34.8805 24.541 34.3861 24.9562 33.9872C25.3715 33.5882 25.8861 33.3887 26.5 33.3887C27.1139 33.3887 27.6285 33.5882 28.0438 33.9872C28.459 34.3861 28.6667 34.8805 28.6667 35.4704C28.6667 36.0602 28.459 36.5546 28.0438 36.9536C27.6285 37.3526 27.1139 37.5521 26.5 37.5521ZM17.8333 37.5521C17.2194 37.5521 16.7049 37.3526 16.2896 36.9536C15.8743 36.5546 15.6667 36.0602 15.6667 35.4704C15.6667 34.8805 15.8743 34.3861 16.2896 33.9872C16.7049 33.5882 17.2194 33.3887 17.8333 33.3887C18.4472 33.3887 18.9618 33.5882 19.3771 33.9872C19.7924 34.3861 20 34.8805 20 35.4704C20 36.0602 19.7924 36.5546 19.3771 36.9536C18.9618 37.3526 18.4472 37.5521 17.8333 37.5521ZM35.1667 37.5521C34.5528 37.5521 34.0382 37.3526 33.6229 36.9536C33.2076 36.5546 33 36.0602 33 35.4704C33 34.8805 33.2076 34.3861 33.6229 33.9872C34.0382 33.5882 34.5528 33.3887 35.1667 33.3887C35.7806 33.3887 36.2951 33.5882 36.7104 33.9872C37.1257 34.3861 37.3333 34.8805 37.3333 35.4704C37.3333 36.0602 37.1257 36.5546 36.7104 36.9536C36.2951 37.3526 35.7806 37.5521 35.1667 37.5521Z" fill="#BF816B" fill-opacity="0.95"/>
</svg>
