<svg width="49" height="49" viewBox="0 0 49 49" fill="none" xmlns="http://www.w3.org/2000/svg">
<path d="M24.5 42.875C19.3958 42.875 15.0573 41.0885 11.4844 37.5156C7.91146 33.9427 6.125 29.6042 6.125 24.5C6.125 19.3958 7.91146 15.0573 11.4844 11.4844C15.0573 7.91146 19.3958 6.125 24.5 6.125C24.9764 6.125 25.4443 6.14201 25.9036 6.17604C26.363 6.21007 26.8139 6.26111 27.2563 6.32917C25.8611 7.31597 24.7467 8.60052 23.913 10.1828C23.0793 11.7651 22.6625 13.475 22.6625 15.3125C22.6625 18.375 23.7344 20.9781 25.8781 23.1219C28.0219 25.2656 30.625 26.3375 33.6875 26.3375C35.559 26.3375 37.2774 25.9207 38.8427 25.087C40.408 24.2533 41.684 23.1389 42.6708 21.7437C42.7389 22.1861 42.7899 22.637 42.824 23.0964C42.858 23.5557 42.875 24.0236 42.875 24.5C42.875 29.6042 41.0885 33.9427 37.5156 37.5156C33.9427 41.0885 29.6042 42.875 24.5 42.875ZM24.5 38.7917C27.4944 38.7917 30.1826 37.9665 32.5646 36.3161C34.9465 34.6658 36.6819 32.5135 37.7708 29.8594C37.0903 30.0295 36.4097 30.1656 35.7292 30.2677C35.0486 30.3698 34.3681 30.4208 33.6875 30.4208C29.5021 30.4208 25.9377 28.9491 22.9943 26.0057C20.0509 23.0623 18.5792 19.4979 18.5792 15.3125C18.5792 14.6319 18.6302 13.9514 18.7323 13.2708C18.8344 12.5903 18.9705 11.9097 19.1406 11.2292C16.4865 12.3181 14.3342 14.0535 12.6839 16.4354C11.0335 18.8174 10.2083 21.5056 10.2083 24.5C10.2083 28.4472 11.6035 31.816 14.3938 34.6063C17.184 37.3965 20.5528 38.7917 24.5 38.7917Z" fill="#292929"/>
</svg>
