<svg width="65" height="65" viewBox="0 0 65 65" fill="none" xmlns="http://www.w3.org/2000/svg">
<path d="M36 64.2534C44.0214 62.8459 53.3629 58.4307 58.3121 51.9932C63.2614 45.5558 65.6012 37.5036 64.8682 29.4311C64.1352 21.3586 60.383 13.8543 54.3544 8.40387C48.3257 2.95348 40.4602 -0.0455662 32.3153 0.000523451C24.1703 0.0466131 16.3396 3.13448 10.3736 8.65274C4.40766 14.171 0.741409 21.7173 0.100749 29.7976C-0.539911 37.8779 1.89173 45.903 6.91423 52.284C11.9367 58.6651 21.1478 62.982 29.1847 64.2986C23.2674 53.1538 25.6269 43.2672 33 43.5452C40.3731 43.8233 40.4263 52.5499 36 64.2534Z" fill="#E5AE0B"/>
</svg>
