<svg width="97" height="24" viewBox="0 0 97 24" fill="none" xmlns="http://www.w3.org/2000/svg">
<path d="M10.6507 3.513C11.0314 3.6881 11.4026 4.08208 11.7643 4.69494C12.145 5.3078 12.4211 5.89877 12.5924 6.46785L4.34023 13.3625L12.5924 20.5527C12.4211 21.0999 12.145 21.6908 11.7643 22.3256C11.4026 22.9384 11.0314 23.3324 10.6507 23.5075L0 14.249V12.5089L10.6507 3.513Z" fill="#F5F5F5"/>
<path d="M16.5016 23.4747C16.2922 23.212 16.1304 22.8947 16.0162 22.5226C15.902 22.1505 15.8449 21.7674 15.8449 21.3735C16.4921 21.3735 16.949 21.2531 17.2155 21.0123C17.482 20.7715 17.6152 20.3447 17.6152 19.7319V4.30096C17.6152 3.6881 17.482 3.26129 17.2155 3.02052C16.949 2.75787 16.4921 2.62654 15.8449 2.62654C15.8449 2.23256 15.902 1.86046 16.0162 1.51026C16.1304 1.13817 16.2922 0.820793 16.5016 0.55814H23.5545C23.9733 1.06156 24.1827 1.75103 24.1827 2.62654C23.5355 2.62654 23.0596 2.75787 22.755 3.02052C22.4504 3.28317 22.2981 3.70999 22.2981 4.30096V20.684H23.3546C24.7443 20.684 25.7722 20.1587 26.4385 19.1081C27.1238 18.0575 27.4664 16.58 27.4664 14.6758H29.4652C29.7888 14.9603 30.0458 15.5732 30.2362 16.5144C30.4265 17.4555 30.5217 18.3748 30.5217 19.2722C30.5217 20.6512 30.3123 21.7018 29.8935 22.4241C29.4747 23.1245 28.7894 23.4747 27.8376 23.4747H16.5016Z" fill="#F5F5F5"/>
<path d="M47.5431 16.5472C47.5431 17.2695 47.3908 18.5609 47.0862 20.4213C46.7817 22.2599 46.5056 23.4528 46.2582 24C45.9536 23.9124 45.5538 23.7373 45.0589 23.4747H31.8383C31.4005 22.8181 31.1816 22.1286 31.1816 21.4063C31.8288 21.4063 32.3047 21.275 32.6093 21.0123C32.9139 20.7497 33.0661 20.3119 33.0661 19.699V4.30096C33.0661 3.70999 32.9139 3.28317 32.6093 3.02052C32.3237 2.75787 31.8574 2.62654 31.2101 2.62654C31.2101 1.90424 31.429 1.21477 31.8669 0.55814H42.9459C43.2695 0.383037 43.6407 0.25171 44.0595 0.164159C44.4973 0.0547195 44.8971 0 45.2588 0C45.5443 0.634747 45.8489 1.51026 46.1725 2.62654C46.5152 3.74282 46.6865 4.55267 46.6865 5.05609C46.458 5.29685 46.0678 5.54856 45.5158 5.81122C44.9637 6.07387 44.4878 6.24897 44.088 6.33653C43.8406 5.52668 43.4503 4.82627 42.9173 4.23529C42.3843 3.64432 41.7656 3.34884 41.0613 3.34884H37.8347V10.2763H39.8906C41.1279 10.2763 41.7466 9.47743 41.7466 7.87962C42.6032 7.87962 43.3742 8.10944 44.0595 8.56908V14.6758C43.7549 14.8947 43.4028 15.0698 43.003 15.2011C42.6032 15.3105 42.194 15.3653 41.7752 15.3653C41.7752 14.5335 41.6038 13.9097 41.2612 13.4938C40.9185 13.078 40.4712 12.87 39.9191 12.87H37.8347V20.5855H41.2897C42.0893 20.5855 42.7841 20.2025 43.3742 19.4364C43.9643 18.6484 44.3355 17.6854 44.4878 16.5472H47.5431Z" fill="#F5F5F5"/>
<path d="M65.1963 19.1409C65.3866 19.8413 65.7102 20.3885 66.1671 20.7825C66.624 21.1765 67.1094 21.3735 67.6234 21.3735C67.6234 21.7674 67.5663 22.1505 67.452 22.5226C67.3378 22.8947 67.176 23.212 66.9666 23.4747H59.2284C59.019 23.212 58.8572 22.8947 58.743 22.5226C58.6288 22.1505 58.5717 21.7674 58.5717 21.3735C59.6568 21.3735 60.1993 20.8482 60.1993 19.7975C60.1993 19.3598 60.1327 18.8454 59.9994 18.2544L59.8281 17.565H53.4319L53.2606 18.2544C53.0893 18.933 53.0036 19.4145 53.0036 19.699C53.0036 20.8153 53.6128 21.3735 54.8311 21.3735C54.8311 21.7674 54.774 22.1505 54.6598 22.5226C54.5456 22.8947 54.3838 23.212 54.1744 23.4747H47.8068C47.5974 23.212 47.4356 22.8947 47.3214 22.5226C47.2071 22.1505 47.15 21.7674 47.15 21.3735C47.683 21.3735 48.1685 21.1984 48.6063 20.8482C49.0441 20.4761 49.3677 19.9398 49.5771 19.2394L54.26 3.34884C53.4986 3.0643 52.5373 2.92202 51.376 2.92202C51.376 1.98085 51.6045 1.19289 52.0613 0.55814H59.8852L65.1963 19.1409ZM59.1999 15.0041L57.1725 6.86183C57.0012 6.2052 56.7823 5.64706 56.5158 5.18741L54.0601 15.0041H59.1999Z" fill="#F5F5F5"/>
<path d="M67.6147 23.4747C67.4053 23.212 67.2435 22.8947 67.1292 22.5226C67.015 22.1505 66.9579 21.7674 66.9579 21.3735C67.6051 21.3735 68.062 21.2531 68.3285 21.0123C68.595 20.7715 68.7283 20.3447 68.7283 19.7319V4.30096C68.7283 3.6881 68.595 3.26129 68.3285 3.02052C68.062 2.75787 67.6051 2.62654 66.9579 2.62654C66.9579 2.23256 67.015 1.86046 67.1292 1.51026C67.2435 1.13817 67.4053 0.820793 67.6147 0.55814H74.6675C75.0863 1.06156 75.2957 1.75103 75.2957 2.62654C74.6485 2.62654 74.1726 2.75787 73.868 3.02052C73.5634 3.28317 73.4111 3.70999 73.4111 4.30096V20.684H74.4677C75.8573 20.684 76.8852 20.1587 77.5515 19.1081C78.2368 18.0575 78.5795 16.58 78.5795 14.6758H80.5782C80.9019 14.9603 81.1588 15.5732 81.3492 16.5144C81.5396 17.4555 81.6347 18.3748 81.6347 19.2722C81.6347 20.6512 81.4253 21.7018 81.0066 22.4241C80.5878 23.1245 79.9025 23.4747 78.9507 23.4747H67.6147Z" fill="#F5F5F5"/>
<path d="M97 14.249L86.3493 23.5075C85.9686 23.3324 85.5879 22.9384 85.2071 22.3256C84.8455 21.6908 84.5789 21.0999 84.4076 20.5527L92.6598 13.3625L84.4076 6.46785C84.5789 5.89877 84.8455 5.3078 85.2071 4.69494C85.5879 4.08208 85.9686 3.6881 86.3493 3.513L97 12.5089V14.249Z" fill="#F5F5F5"/>
</svg>
