<svg width="49" height="49" viewBox="0 0 49 49" fill="none" xmlns="http://www.w3.org/2000/svg">
<path d="M8 39.7083V35.625H12.0833V21.3333C12.0833 18.509 12.934 15.9995 14.6354 13.8047C16.3368 11.6099 18.5486 10.1722 21.2708 9.49167V8.0625C21.2708 7.21181 21.5686 6.48872 22.1641 5.89323C22.7596 5.29774 23.4826 5 24.3333 5C25.184 5 25.9071 5.29774 26.5026 5.89323C27.0981 6.48872 27.3958 7.21181 27.3958 8.0625V9.49167C30.1181 10.1722 32.3299 11.6099 34.0313 13.8047C35.7326 15.9995 36.5833 18.509 36.5833 21.3333V35.625H40.6667V39.7083H8ZM24.3333 45.8333C23.2104 45.8333 22.2491 45.4335 21.4495 44.6339C20.6498 43.8342 20.25 42.8729 20.25 41.75H28.4167C28.4167 42.8729 28.0168 43.8342 27.2172 44.6339C26.4175 45.4335 25.4563 45.8333 24.3333 45.8333ZM16.1667 35.625H32.5V21.3333C32.5 19.0875 31.7003 17.1649 30.101 15.5656C28.5017 13.9663 26.5792 13.1667 24.3333 13.1667C22.0875 13.1667 20.1649 13.9663 18.5656 15.5656C16.9663 17.1649 16.1667 19.0875 16.1667 21.3333V35.625Z" fill="#292929"/>
<ellipse cx="39" cy="17.7122" rx="7" ry="6.96585" fill="#E5AE0B"/>
</svg>
