<svg width="49" height="49" viewBox="0 0 49 49" fill="none" xmlns="http://www.w3.org/2000/svg">
<path d="M24.5 24.3333C22.2541 24.3333 20.3316 23.5337 18.7323 21.9344C17.1329 20.3351 16.3333 18.4125 16.3333 16.1667C16.3333 13.9208 17.1329 11.9983 18.7323 10.399C20.3316 8.79965 22.2541 8 24.5 8C26.7458 8 28.6684 8.79965 30.2677 10.399C31.867 11.9983 32.6666 13.9208 32.6666 16.1667C32.6666 18.4125 31.867 20.3351 30.2677 21.9344C28.6684 23.5337 26.7458 24.3333 24.5 24.3333ZM8.16663 40.6667V34.95C8.16663 33.7931 8.46437 32.7297 9.05986 31.7599C9.65534 30.7901 10.4465 30.05 11.4333 29.5396C13.543 28.4847 15.6868 27.6936 17.8645 27.1661C20.0423 26.6387 22.2541 26.375 24.5 26.375C26.7458 26.375 28.9576 26.6387 31.1354 27.1661C33.3132 27.6936 35.4569 28.4847 37.5666 29.5396C38.5534 30.05 39.3446 30.7901 39.9401 31.7599C40.5356 32.7297 40.8333 33.7931 40.8333 34.95V40.6667H8.16663ZM12.25 36.5833H36.75V34.95C36.75 34.5757 36.6564 34.2354 36.4692 33.9292C36.2821 33.6229 36.0354 33.3847 35.7291 33.2146C33.8916 32.2958 32.0371 31.6068 30.1656 31.1474C28.2941 30.688 26.4055 30.4583 24.5 30.4583C22.5944 30.4583 20.7059 30.688 18.8343 31.1474C16.9628 31.6068 15.1083 32.2958 13.2708 33.2146C12.9645 33.3847 12.7178 33.6229 12.5307 33.9292C12.3435 34.2354 12.25 34.5757 12.25 34.95V36.5833ZM24.5 20.25C25.6229 20.25 26.5842 19.8502 27.3838 19.0505C28.1835 18.2509 28.5833 17.2896 28.5833 16.1667C28.5833 15.0438 28.1835 14.0825 27.3838 13.2828C26.5842 12.4832 25.6229 12.0833 24.5 12.0833C23.377 12.0833 22.4158 12.4832 21.6161 13.2828C20.8165 14.0825 20.4166 15.0438 20.4166 16.1667C20.4166 17.2896 20.8165 18.2509 21.6161 19.0505C22.4158 19.8502 23.377 20.25 24.5 20.25Z" fill="#BF816B" fill-opacity="0.95"/>
</svg>
