<svg width="40" height="42" viewBox="0 0 40 42" fill="none" xmlns="http://www.w3.org/2000/svg">
<path d="M36.8889 41.5385L22.8889 27C21.7778 27.9231 20.5 28.6538 19.0556 29.1923C17.6111 29.7308 16.0741 30 14.4444 30C10.4074 30 6.99074 28.5481 4.19444 25.6442C1.39815 22.7404 0 19.1923 0 15C0 10.8077 1.39815 7.25962 4.19444 4.35577C6.99074 1.45192 10.4074 0 14.4444 0C18.4815 0 21.8981 1.45192 24.6944 4.35577C27.4907 7.25962 28.8889 10.8077 28.8889 15C28.8889 16.6923 28.6296 18.2885 28.1111 19.7885C27.5926 21.2885 26.8889 22.6154 26 23.7692L40 38.3077L36.8889 41.5385ZM14.4444 25.3846C17.2222 25.3846 19.5833 24.375 21.5278 22.3558C23.4722 20.3365 24.4444 17.8846 24.4444 15C24.4444 12.1154 23.4722 9.66346 21.5278 7.64423C19.5833 5.625 17.2222 4.61538 14.4444 4.61538C11.6667 4.61538 9.30556 5.625 7.36111 7.64423C5.41667 9.66346 4.44444 12.1154 4.44444 15C4.44444 17.8846 5.41667 20.3365 7.36111 22.3558C9.30556 24.375 11.6667 25.3846 14.4444 25.3846Z" fill="#BF816B"/>
</svg>
