<svg width="49" height="49" viewBox="0 0 49 49" fill="none" xmlns="http://www.w3.org/2000/svg">
<path d="M18.8854 44.9166L18.0687 38.3833C17.6263 38.2132 17.2095 38.009 16.8182 37.7708C16.4269 37.5326 16.044 37.2774 15.6697 37.0052L9.59578 39.5573L3.9812 29.8594L9.23849 25.8781C9.20447 25.6399 9.18745 25.4102 9.18745 25.189V23.8109C9.18745 23.5897 9.20447 23.36 9.23849 23.1219L3.9812 19.1406L9.59578 9.44269L15.6697 11.9948C16.044 11.7225 16.4354 11.4673 16.8437 11.2291C17.252 10.991 17.6604 10.7868 18.0687 10.6166L18.8854 4.08331H30.1145L30.9312 10.6166C31.3736 10.7868 31.7904 10.991 32.1817 11.2291C32.573 11.4673 32.9559 11.7225 33.3302 11.9948L39.4041 9.44269L45.0187 19.1406L39.7614 23.1219C39.7954 23.36 39.8125 23.5897 39.8125 23.8109V25.189C39.8125 25.4102 39.7784 25.6399 39.7104 25.8781L44.9677 29.8594L39.3531 39.5573L33.3302 37.0052C32.9559 37.2774 32.5645 37.5326 32.1562 37.7708C31.7479 38.009 31.3395 38.2132 30.9312 38.3833L30.1145 44.9166H18.8854ZM24.602 31.6458C26.5756 31.6458 28.26 30.9482 29.6552 29.5531C31.0503 28.158 31.7479 26.4736 31.7479 24.5C31.7479 22.5264 31.0503 20.842 29.6552 19.4469C28.26 18.0517 26.5756 17.3541 24.602 17.3541C22.5944 17.3541 20.9015 18.0517 19.5234 19.4469C18.1453 20.842 17.4562 22.5264 17.4562 24.5C17.4562 26.4736 18.1453 28.158 19.5234 29.5531C20.9015 30.9482 22.5944 31.6458 24.602 31.6458ZM24.602 27.5625C23.7513 27.5625 23.0283 27.2647 22.4328 26.6693C21.8373 26.0738 21.5395 25.3507 21.5395 24.5C21.5395 23.6493 21.8373 22.9262 22.4328 22.3307C23.0283 21.7352 23.7513 21.4375 24.602 21.4375C25.4527 21.4375 26.1758 21.7352 26.7713 22.3307C27.3668 22.9262 27.6645 23.6493 27.6645 24.5C27.6645 25.3507 27.3668 26.0738 26.7713 26.6693C26.1758 27.2647 25.4527 27.5625 24.602 27.5625ZM22.4583 40.8333H26.4906L27.2052 35.4229C28.26 35.1507 29.2383 34.7508 30.1401 34.2234C31.0418 33.696 31.867 33.058 32.6156 32.3094L37.6687 34.4021L39.6593 30.9312L35.2697 27.6135C35.4399 27.1371 35.559 26.6352 35.627 26.1078C35.6951 25.5804 35.7291 25.0444 35.7291 24.5C35.7291 23.9555 35.6951 23.4196 35.627 22.8922C35.559 22.3647 35.4399 21.8628 35.2697 21.3864L39.6593 18.0687L37.6687 14.5979L32.6156 16.7416C31.867 15.959 31.0418 15.304 30.1401 14.7765C29.2383 14.2491 28.26 13.8493 27.2052 13.5771L26.5416 8.16665H22.5093L21.7947 13.5771C20.7399 13.8493 19.7616 14.2491 18.8598 14.7765C17.9581 15.304 17.1329 15.942 16.3843 16.6906L11.3312 14.5979L9.34058 18.0687L13.7302 21.3354C13.56 21.8458 13.4409 22.3562 13.3729 22.8666C13.3048 23.3771 13.2708 23.9215 13.2708 24.5C13.2708 25.0444 13.3048 25.5719 13.3729 26.0823C13.4409 26.5927 13.56 27.1031 13.7302 27.6135L9.34058 30.9312L11.3312 34.4021L16.3843 32.2583C17.1329 33.041 17.9581 33.696 18.8598 34.2234C19.7616 34.7508 20.7399 35.1507 21.7947 35.4229L22.4583 40.8333Z" fill="#292929"/>
</svg>
