<svg width="49" height="49" viewBox="0 0 49 49" fill="none" xmlns="http://www.w3.org/2000/svg">
<path d="M18.5167 45.9375L14.6375 39.4042L7.2875 37.7708L8.00208 30.2167L3 24.5L8.00208 18.7833L7.2875 11.2292L14.6375 9.59583L18.5167 3.0625L25.4583 6.02292L32.4 3.0625L36.2792 9.59583L43.6292 11.2292L42.9146 18.7833L47.9167 24.5L42.9146 30.2167L43.6292 37.7708L36.2792 39.4042L32.4 45.9375L25.4583 42.9771L18.5167 45.9375ZM20.2521 40.7313L25.4583 38.4854L30.7667 40.7313L33.625 35.8312L39.2396 34.5042L38.7292 28.7875L42.5062 24.5L38.7292 20.1104L39.2396 14.3938L33.625 13.1687L30.6646 8.26875L25.4583 10.5146L20.15 8.26875L17.2917 13.1687L11.6771 14.3938L12.1875 20.1104L8.41042 24.5L12.1875 28.7875L11.6771 34.6063L17.2917 35.8312L20.2521 40.7313ZM23.3146 31.7479L34.85 20.2125L31.9917 17.2521L23.3146 25.9292L18.925 21.6417L16.0667 24.5L23.3146 31.7479Z" fill="#BF816B"/>
</svg>
